<svg height="512pt" viewBox="0 0 512 512" width="512pt" xmlns="http://www.w3.org/2000/svg" xmlns:xlink="http://www.w3.org/1999/xlink"><linearGradient id="a" gradientTransform="matrix(1 0 0 -1 0 -9462)" gradientUnits="userSpaceOnUse" x1="0" x2="512" y1="-9718" y2="-9718"><stop offset="0" stop-color="#00f38d"/><stop offset="1" stop-color="#009eff"/></linearGradient><path d="m512 256c0 141.386719-114.613281 256-256 256s-256-114.613281-256-256 114.613281-256 256-256 256 114.613281 256 256zm0 0" fill="url(#a)"/><path d="m397.1875 119.984375h-282.375c-24.160156 0-43.8125 19.652344-43.8125 43.8125v184.40625c0 24.160156 19.652344 43.8125 43.8125 43.8125h282.375c24.15625 0 43.8125-19.65625 43.8125-43.8125v-184.40625c0-24.160156-19.652344-43.8125-43.8125-43.8125zm-4.417969 30-136.769531 101.726563-136.769531-101.726563zm4.417969 212.03125h-282.375c-7.617188 0-13.8125-6.195313-13.8125-13.8125v-174.390625l155 115.289062 155-115.289062v174.390625c0 7.617187-6.195312 13.8125-13.8125 13.8125zm0 0" fill="#fff"/></svg>